# File created by Blade
# Date/Time:  Mon Sep 29 17:58:21 2014
# Frame Rate: 120.000 fps
#------------------------------------------------------
:FULLY-SPECIFIED
:DEGREES
1587
root -2.050149 4.058716 -7.458934 -23.505332 -1.708821 13.510423
Spine 39.944765 60.079672 8.920163
Head -50.170795 73.437215 -32.332189
LeftShoulder -13.060551 16.251945 14.174469
LeftArm 22.948008 23.759358 -77.228245
LeftForeArm -27.531250 -0.000000 8.917876
LeftHand -53.910559 -0.000000 76.155243
LeftHandThumb1 -26.253704 0.000000 33.147579
RightShoulder 7.459270 30.310306 -18.789258
RightArm 0.680854 -53.414737 64.581849
RightForeArm -20.228259 -0.000000 18.225728
RightHand -4.178549 -0.000000 26.220025
RightHandThumb1 -24.326973 -0.000000 -32.862282
LeftUpLeg -113.290534 -26.491699 -10.227272
LeftLeg 119.138596 -0.000000 -0.000000
LeftFoot 5.095569 12.203425 -22.659312
LeftToeBase 8.911881 -0.000000 -0.000000
RightUpLeg -61.112525 2.994792 17.955029
RightLeg 8.071786 -0.000000 -0.000000
RightFoot 35.513302 -5.864967 10.961611
RightToeBase 7.027637 -0.000000 -0.000000
1588
root -2.044630 4.055133 -7.460644 -23.469852 -1.640840 13.398977
Spine 40.053628 60.136229 9.147307
Head -51.369721 73.576543 -33.572627
LeftShoulder -13.035942 16.215998 14.156708
LeftArm 23.014568 23.864397 -77.160317
LeftForeArm -27.650952 -0.000000 8.998068
LeftHand -53.996133 0.000000 76.028018
LeftHandThumb1 -26.253704 0.000000 33.147579
RightShoulder 7.432062 30.302727 -18.780528
RightArm 0.574486 -53.312102 64.660842
RightForeArm -20.291709 -0.000000 18.065903
RightHand -4.051830 -0.000000 26.267341
RightHandThumb1 -24.326973 -0.000000 -32.862282
LeftUpLeg -113.251165 -26.526465 -10.287290
LeftLeg 119.117184 -0.000000 -0.000000
LeftFoot 5.065379 12.151411 -22.524259
LeftToeBase 8.925042 -0.000000 -0.000000
RightUpLeg -61.167602 2.923150 17.972686
RightLeg 8.066073 -0.000000 -0.000000
RightFoot 35.494207 -5.767875 10.941437
RightToeBase 7.138353 -0.000000 -0.000000
1589
root -2.043852 4.050233 -7.462562 -23.439824 -1.580021 13.262919
Spine 40.184597 60.197282 9.415460
Head -52.629621 73.696447 -34.873098
LeftShoulder -13.011032 16.170447 14.176750
LeftArm 23.094844 23.979231 -77.118321
LeftForeArm -27.597456 -0.000000 8.989318
LeftHand -54.003323 -0.000000 76.012994
LeftHandThumb1 -26.253704 0.000000 33.147579
RightShoulder 7.381651 30.260124 -18.782699
RightArm 0.582761 -53.431766 64.631651
RightForeArm -20.168038 -0.000000 17.933281
RightHand -4.111507 -0.000000 26.377161
RightHandThumb1 -24.326973 -0.000000 -32.862282
LeftUpLeg -113.209011 -26.554077 -10.364095
LeftLeg 119.095115 -0.000000 -0.000000
LeftFoot 5.073310 12.232614 -22.394673
LeftToeBase 8.951652 -0.000000 -0.000000
RightUpLeg -61.210526 2.848901 18.047659
RightLeg 8.032700 -0.000000 -0.000000
RightFoot 35.551544 -5.795385 10.935949
RightToeBase 7.098063 -0.000000 -0.000000
1590
root -2.040089 4.045341 -7.466630 -23.417503 -1.479697 13.132663
Spine 40.362565 60.223382 9.713958
Head -53.683474 73.749703 -35.961572
LeftShoulder -12.989422 16.147796 14.175470
LeftArm 23.237846 24.088525 -77.065563
LeftForeArm -27.520877 -0.000000 8.937923
LeftHand -54.027517 -0.000000 75.986042
LeftHandThumb1 -26.253704 0.000000 33.147579
RightShoulder 7.347946 30.252188 -18.782654
RightArm 0.497845 -53.489878 64.616411
RightForeArm -20.228019 -0.000000 17.906780
RightHand -4.140719 -0.000000 26.484372
RightHandThumb1 -24.326973 -0.000000 -32.862282
LeftUpLeg -113.169577 -26.593760 -10.417785
LeftLeg 119.061153 -0.000000 -0.000000
LeftFoot 5.137871 12.188520 -22.372075
LeftToeBase 8.910302 -0.000000 -0.000000
RightUpLeg -61.259969 2.728816 18.108735
RightLeg 8.006425 -0.000000 -0.000000
RightFoot 35.595918 -5.766739 10.895521
RightToeBase 7.139987 -0.000000 -0.000000
